<svg width="48" height="60" viewBox="0 0 48 60" fill="none" xmlns="http://www.w3.org/2000/svg">
<path d="M24.4548 0.400024C25.1279 1.5213 25.1727 2.68867 24.4847 3.79458C24.2603 4.14786 23.7369 4.14786 23.5275 3.79458C22.8394 2.67331 22.8843 1.5213 23.5574 0.400024C23.8565 0.400024 24.1557 0.400024 24.4548 0.400024Z" fill="#A47144"/>
<path d="M1.94442 24.0237C2.60253 24.0544 3.51491 24.0544 3.47004 25.0835C3.41021 26.1126 2.46792 25.9898 1.73502 26.0051C0.987168 26.0205 0 26.0051 0 25.0682C0.0149571 23.9776 1.047 24.039 1.94442 24.0237Z" fill="#A47144"/>
<path d="M46.2323 24.0237C47.1298 24.0237 48.0571 24.1312 47.9973 25.0682C47.9075 26.1434 46.8456 26.0205 46.0528 26.0051C45.3947 25.9898 44.5272 25.9898 44.5422 25.0835C44.5422 23.9008 45.5593 24.0698 46.2323 24.0237Z" fill="#A47144"/>
<path d="M4.14309 37.7555C3.45507 37.7094 2.90165 37.4022 3.11105 36.8032C3.49994 35.7126 4.56189 35.3593 5.54906 35.0982C5.96785 34.9907 6.47639 35.4976 6.37169 35.9584C6.10247 37.1411 4.98069 37.3408 4.14309 37.7555Z" fill="#A47144"/>
<path d="M41.5507 36.0044C41.7452 35.4054 42.1041 34.8524 42.6575 35.1289C43.555 35.559 44.7665 35.7587 44.9011 37.0489C44.946 37.4483 44.4524 37.8937 43.9439 37.7555C42.9417 37.4636 41.9994 37.0489 41.5507 36.0044Z" fill="#A47144"/>
<path d="M14.1494 5.77605C14.1494 6.62085 13.8502 6.97413 13.3118 6.85125C12.1002 6.55941 11.8759 5.40741 11.5618 4.42437C11.4272 4.02501 11.9058 3.53349 12.4293 3.62565C13.7306 3.85605 13.6259 5.19237 14.1494 5.77605Z" fill="#A47144"/>
<path d="M34.8649 6.86657C34.1171 6.88193 33.7431 6.55936 33.8778 6.03712C34.1171 5.02336 34.3863 3.90209 35.5978 3.64097C36.0914 3.53345 36.5551 4.04033 36.4354 4.45505C36.1512 5.43809 35.7923 6.48257 34.8649 6.86657Z" fill="#A47144"/>
<path d="M5.35463 14.9921C4.54695 14.4238 3.27559 14.347 3.12602 13.0721C3.05124 12.5038 3.67944 12.1505 4.23285 12.3502C5.11532 12.6728 6.14736 12.98 6.38667 14.0552C6.52128 14.6235 5.93796 14.9307 5.35463 14.9921Z" fill="#A47144"/>
<path d="M44.9161 13.287C44.3926 14.27 43.4503 14.7308 42.4631 14.9305C41.9696 15.038 41.3563 14.4697 41.6405 13.9014C42.1341 12.9337 43.0614 12.3961 44.1533 12.3347C44.6469 12.3193 44.9011 12.7187 44.9161 13.287Z" fill="#A47144"/>
<path d="M40.5037 20.0763C40.3691 19.3697 40.414 18.0948 39.2324 18.2945C37.9311 18.5095 38.6042 19.5233 38.7537 20.3067C39.8755 26.3585 38.3948 31.6116 33.8179 35.6513C31.335 37.8324 28.8223 39.8139 28.4184 43.4542C28.3586 44.0225 27.9847 44.2068 27.4612 44.13C26.9526 44.0532 26.9526 43.6385 26.9676 43.2545C27.0872 39.2609 25.786 34.8372 30.2133 32.1646C30.4526 32.011 30.647 31.7345 30.7816 31.4734C31.2004 30.7054 30.5124 29.9681 30.1534 30.2599C29.0167 31.1815 27.88 30.4596 26.7881 30.5518C24.2304 30.7515 21.6429 30.7668 19.0702 30.7361C18.442 30.7207 17.754 29.5841 17.2006 30.6593C16.6771 31.6731 17.7241 32.1953 18.3074 32.6254C20.6706 34.3764 21.6578 36.619 21.0446 39.0151C21.0446 40.7201 21.0595 41.8721 21.0446 43.0241C21.0446 43.4542 21.1792 44.0071 20.536 44.1147C19.863 44.2375 19.6386 43.8228 19.5489 43.2084C19.1151 40.1979 17.3053 38.155 15.0617 36.3579C9.90156 32.2567 7.86739 26.7732 9.34814 20.3067C10.7242 14.2241 14.6878 10.1691 20.6258 8.80202C27.0274 7.32746 32.382 9.47786 36.3756 14.9307C36.8093 15.5297 37.1384 16.7585 38.1704 16.0827C39.2324 15.3915 38.2751 14.5927 37.8713 13.963C33.9675 8.03402 26.474 5.17706 19.7732 7.12778C13.2519 9.03242 9.01909 13.4407 7.56825 20.1684C6.04263 27.2187 8.31611 33.163 13.8502 37.6788C15.4506 38.9844 16.9164 40.3668 17.6044 42.4097C17.9784 43.5156 18.0831 44.3604 16.4677 44.1761C14.7028 43.9764 14.1793 44.9902 14.1045 46.6798C14.0447 48.3694 14.5233 49.4753 16.1686 49.9207C15.5404 52.2094 17.9933 53.131 18.2925 55.0203C18.3673 55.5271 18.6066 56.0647 19.2647 56.0955C19.848 56.1262 20.1771 55.6961 20.0574 55.2507C19.4591 52.9467 21.0296 53.4382 22.2112 53.4228C23.7069 53.4075 25.2026 53.4843 26.6984 53.4075C28.4782 53.2999 28.4035 54.1601 27.7005 55.3121C26.474 57.3242 24.7539 58.0154 22.5253 57.2321C21.8373 56.9863 21.2988 57.1553 21.1194 57.8772C20.9698 58.507 21.4634 58.8295 22.0018 58.9524C22.5702 59.0907 23.1535 59.2596 23.7368 59.3211C25.3073 59.4747 26.6834 58.9524 27.865 57.9233C29.8393 56.1722 30.288 53.4535 31.709 51.3339C32.1278 50.7195 31.8735 49.8286 32.9654 49.3371C34.5359 48.6459 33.9525 46.9255 33.8628 45.6353C33.788 44.4526 32.8307 44.0071 31.7389 44.1454C30.0786 44.3604 30.0637 43.5463 30.4974 42.2868C31.2303 40.1364 32.8457 38.8308 34.476 37.4638C39.8157 32.9479 41.7751 27.0804 40.5037 20.0763ZM20.8501 32.8404C22.8394 32.8865 24.6791 32.1185 26.6984 33.1169C24.8586 34.3303 25.1279 36.2964 25.1578 38.1857C25.1727 39.7985 25.1279 41.3959 25.1727 43.0087C25.2026 43.8996 24.8885 44.2222 24.021 44.2068C23.1834 44.2068 22.7946 43.9764 22.8245 43.0548C22.8693 41.2116 22.7796 39.3838 22.8544 37.5406C22.9292 35.6513 22.8843 33.8695 20.8501 32.8404ZM28.6727 51.6103C27.1171 51.595 25.5616 51.6103 23.9911 51.6103C22.4356 51.6103 20.88 51.6103 19.3096 51.6103C18.6215 51.6103 17.9933 51.6718 18.0232 50.5966C18.0532 49.6596 18.5767 49.7057 19.1899 49.7057C22.3758 49.7057 25.5766 49.7057 28.7624 49.7057C29.3757 49.7057 29.9141 49.6443 29.944 50.5966C29.9889 51.6564 29.3757 51.6103 28.6727 51.6103ZM30.9312 45.9886C31.4996 45.9886 32.1128 45.8503 32.1427 46.8334C32.1876 47.8625 31.6641 47.9086 30.9162 47.9086C26.3095 47.8932 21.6877 47.9086 17.081 47.8932C16.5126 47.8932 15.8993 48.0315 15.8694 47.0484C15.8246 46.0347 16.3481 45.9732 17.0959 45.9732C19.4741 46.0039 21.8523 45.9886 24.2304 45.9886C26.459 45.9732 28.6876 45.9732 30.9312 45.9886Z" fill="#A47144"/>
</svg>
