<svg width="48" height="42" viewBox="0 0 48 42" fill="none" xmlns="http://www.w3.org/2000/svg">
<path d="M17.682 10.5053C18.7175 10.4726 20.3488 11.1487 21.7815 12.2174C23.9803 13.8641 24.0228 13.875 26.2924 12.1629C28.3635 10.6035 30.8034 10.1237 33.4985 10.7671C38.2506 11.8794 40.0096 16.165 36.9739 19.2075C35.9952 20.1998 34.7469 21.0286 33.5978 21.9119C33.2007 22.2281 32.7042 22.5553 32.1651 22.0864C31.6687 21.6611 32.0091 21.2903 32.4347 20.9631C33.3283 20.2652 34.2504 19.5891 35.1157 18.8694C37.3144 17.0374 37.3286 14.6819 35.1866 13.0244C33.1297 11.4323 30.1083 11.4105 27.711 12.9044C26.4059 13.7114 25.5974 15.3689 23.9235 15.3144C22.4341 15.2708 21.5546 13.7332 20.3205 12.9371C17.9232 11.3777 14.7315 11.4432 12.6888 13.1116C10.6745 14.7583 10.6745 17.1028 12.859 18.8258C16.2067 21.4866 19.6821 24.0601 23.044 26.7209C23.8951 27.397 24.3491 27.2335 25.0583 26.6446C26.3634 25.565 27.7393 24.54 29.1011 23.5149C29.4841 23.2314 29.8955 22.7625 30.5196 23.2096C31.1722 23.6785 30.7608 24.0819 30.2785 24.4527C28.5763 25.7613 26.874 27.0699 25.1576 28.3785C24.3349 29.0001 23.5263 28.9237 22.7461 28.3239C18.9019 25.3469 14.9584 22.4353 11.2277 19.3819C9.22761 17.7353 8.92972 15.6743 10.2206 13.6132C11.4972 11.574 13.6818 10.5381 17.682 10.5053Z" fill="#A47144"/>
<path d="M23.0015 34.5396C23.5405 33.8089 22.3773 32.4785 24.037 32.5222C25.5264 32.5658 24.7604 33.8417 24.7746 34.5505C24.7888 35.2593 25.4555 36.5897 24.037 36.6006C22.2922 36.5788 23.6824 35.1393 23.0015 34.5396Z" fill="#A47144"/>
<path d="M3.11373 17.6698C3.92229 18.0624 5.63871 17.1136 5.61034 18.4222C5.59615 19.4691 4.02159 19.022 3.17048 18.9893C2.17751 18.9566 0.361799 19.5563 0.347614 18.3895C0.319243 17.1137 2.16332 18.0515 3.11373 17.6698Z" fill="#A47144"/>
<path d="M45.1021 17.6698C45.9816 18.0297 47.7122 17.1682 47.6696 18.4113C47.6271 19.5236 45.9532 19.0002 45.017 19.0002C44.0949 18.9893 42.3927 19.5345 42.3927 18.4222C42.4069 17.0482 44.2226 18.0951 45.1021 17.6698Z" fill="#A47144"/>
<path d="M24.9306 2.33762C24.4483 2.9701 25.6257 4.3005 23.8951 4.24597C22.5759 4.21326 23.1433 3.00281 23.2 2.34852C23.2568 1.59608 22.3915 0.211163 23.9802 0.200258C25.6399 0.189353 24.4483 1.60699 24.9306 2.33762Z" fill="#A47144"/>
<path d="M11.2703 7.81177C11.3128 8.41154 10.944 8.7714 10.4191 8.56421C8.97224 7.99715 7.87998 7.04843 7.02887 6.01246C6.67424 5.57627 7.32676 5.07464 7.92254 5.33636C9.34106 5.95794 10.3908 6.89576 11.2703 7.81177Z" fill="#A47144"/>
<path d="M37.3853 8.59695C36.5484 8.52062 36.4491 8.01899 36.9172 7.5937C37.7683 6.80855 38.7471 6.11063 39.74 5.42362C39.9244 5.29277 40.4209 5.31457 40.7046 5.40181C40.8749 5.44543 40.9883 5.75077 40.9883 5.94706C41.0025 6.37235 38.052 8.58605 37.3853 8.59695Z" fill="#A47144"/>
<path d="M47.9249 34.7578C47.7689 33.6236 47.9107 32.4677 47.8965 31.3336C47.8824 30.8647 48.0242 30.2213 47.0738 30.2431C46.2227 30.2649 46.2085 30.8429 46.1943 31.3445C46.1801 33.1438 46.2369 34.9431 46.1518 36.7315C46.0525 38.5527 44.7474 39.7522 42.5629 40.3956C40.3358 41.0499 38.2648 40.69 36.7753 39.3378C35.1724 37.8766 33.3709 36.5789 31.6828 35.183C31.2431 34.8232 30.3068 34.4306 31.0587 33.8854C31.7821 33.3619 32.2502 34.1035 32.7751 34.4088C33.7964 35.0086 34.3355 36.1318 35.9951 36.0554C38.3782 35.9464 39.9244 36.7315 40.2507 38.6617C40.3216 39.0652 40.5911 39.4141 41.2011 39.3814C42.0522 39.3487 41.9104 38.8362 41.8962 38.4109C41.8536 36.5134 39.6833 34.9213 36.8321 34.7687C36.0519 34.725 35.1724 34.845 35.1724 33.9399C35.1582 31.3227 35.1724 28.7164 35.1866 26.0993C35.1866 25.7394 35.4277 25.4232 35.8816 25.3904C36.4916 25.3468 36.7186 25.7176 36.7328 26.132C36.7469 27.0589 36.7469 27.9858 36.7469 28.9127C36.7469 33.5146 36.7469 33.4819 42.7615 33.4601C44.3502 33.4601 44.9176 33.0784 44.8325 31.8571C44.7332 30.2867 44.8042 28.6946 44.8184 27.1243C44.8184 26.7645 44.6907 26.2846 45.4141 26.241C46.3078 26.1865 46.1801 26.7208 46.2085 27.1461C46.2227 27.3097 46.2085 27.4733 46.2227 27.6369C46.2652 28.0949 46.3787 28.542 47.1447 28.542C48.01 28.542 47.9107 28.0076 47.9107 27.5932C47.9107 26.9498 48.2228 26.0447 47.4852 25.7394C45.7546 25.0306 44.4921 23.8092 42.7331 23.2531C41.9955 23.0241 41.499 22.8823 41.1018 22.3262C40.6195 21.6501 39.7258 21.4211 38.7329 21.5737C37.6548 21.7373 36.9597 22.2171 36.8037 23.0786C36.7186 23.5257 36.9739 23.9837 35.91 24.0491C34.1085 24.1582 33.4702 25.1505 33.4702 26.4591C33.4843 28.5529 33.4702 30.6466 33.4702 32.8385C31.9098 32.3478 30.6047 32.1297 29.5976 33.1656C28.9309 33.8417 28.7748 34.7032 29.5692 35.2594C32.7183 37.4622 34.8319 40.5374 38.9173 41.9659C40.194 41.9659 41.4706 41.9659 42.7473 41.9659C46.7901 40.5483 48.3788 38.1165 47.9249 34.7578ZM41.5132 25.4886C41.5132 25.0415 41.5557 24.5399 42.3217 24.529C43.1019 24.5181 43.1303 25.0197 43.1303 25.4668C43.1445 26.4482 43.1303 27.4297 43.1303 28.4111C43.1303 29.3925 43.1303 30.374 43.1303 31.3554C43.1303 31.7262 43.2296 32.1297 42.4494 32.1515C41.6834 32.1733 41.4848 31.9007 41.4848 31.3663C41.5274 29.4144 41.499 27.4515 41.5132 25.4886ZM38.4208 23.7002C38.4208 23.2967 38.4775 22.8823 39.1443 22.8932C39.8251 22.9041 39.8251 23.3512 39.8251 23.7329C39.8251 26.2846 39.8251 28.8364 39.8251 31.3772C39.8251 31.7589 39.8677 32.1515 39.1017 32.1406C38.3215 32.1297 38.435 31.7153 38.435 31.3445C38.4208 30.0468 38.435 28.7383 38.435 27.4406C38.4208 26.1974 38.435 24.9543 38.4208 23.7002Z" fill="#A47144"/>
<path d="M17.7955 32.6967C16.7883 32.1187 15.7102 32.5222 14.5329 32.7403C14.5329 31.8134 14.547 31.0064 14.5329 30.1886C14.5187 29.7088 14.235 29.2726 13.5541 29.3162C12.9867 29.3489 12.8448 29.7851 12.8448 30.1886C12.8448 31.17 12.7739 32.1515 12.859 33.1329C12.9583 34.2452 12.6462 34.7904 10.9298 34.8013C8.37646 34.8123 6.26286 36.4698 6.12101 38.2691C6.09264 38.6726 5.83731 39.2287 6.63168 39.3596C7.48279 39.4905 7.70975 39.0106 7.78068 38.4654C7.96509 37.1568 9.04317 36.099 10.5468 36.1645C12.9157 36.2626 14.1782 35.2484 15.54 34.158C15.9372 33.8308 16.4479 33.4819 16.9869 33.8962C17.5401 34.3324 16.9727 34.6814 16.5897 34.9867C14.7173 36.4698 12.8023 37.9201 11.0291 39.4905C9.69569 40.6791 7.75231 40.9626 5.75219 40.5046C3.69533 40.0357 2.06403 38.9452 1.93636 37.3313C1.68103 33.8526 1.8087 30.3521 1.79451 26.8735C1.79451 26.5245 1.92218 26.2083 2.50377 26.2301C3.07118 26.2519 3.15629 26.5681 3.17048 26.9171C3.18466 27.5169 3.18466 28.1166 3.18466 28.7164C3.18466 33.58 3.18466 33.5473 9.42617 33.46C10.8021 33.4382 11.3128 33.1329 11.2561 32.0533C11.171 30.145 11.2277 28.2366 11.2277 26.3282C11.2277 25.8702 11.327 25.3904 12.0504 25.3904C12.632 25.4013 12.7739 25.8266 12.8023 26.241C12.8164 26.4591 12.8023 26.6772 12.8164 26.8953C12.8448 27.3097 12.9725 27.6804 13.6534 27.6368C14.2633 27.5932 14.4619 27.2443 14.5045 26.8408C14.6322 25.5322 14.2633 24.3654 12.3483 24.0818C11.483 23.951 11.1993 23.7983 11.171 23.1222C11.1426 22.2498 10.3908 21.7591 9.31269 21.5846C8.31972 21.421 7.35512 21.6282 6.92956 22.3043C6.50401 22.9804 5.9366 23.1876 5.0713 23.2531C4.31948 23.3076 3.79463 23.7111 3.49674 24.2345C3.25559 24.6489 3.00026 24.9215 2.27681 24.9433C0.560394 25.0087 0.063911 25.903 0.0780962 27.0807C0.0922814 29.6979 0.262506 32.3259 0.0355422 34.9322C-0.262348 38.2473 1.29803 40.6028 5.25571 41.9659C6.53238 41.9659 7.80905 41.9659 9.08572 41.9659C13.1569 40.5264 15.3272 37.4949 18.4196 35.2375C19.4977 34.4415 19.0012 33.3837 17.7955 32.6967ZM8.17787 23.6238C8.17787 23.2858 8.23461 22.9368 8.78783 22.9041C9.45454 22.8605 9.56802 23.2422 9.56802 23.6565C9.56802 25.0087 9.56802 26.3719 9.56802 27.7241C9.56802 28.9672 9.56802 30.2213 9.56802 31.4645C9.56802 31.7916 9.56802 32.1078 8.95806 32.1405C8.24879 32.1842 8.16368 31.8679 8.16368 31.4426C8.17787 28.8364 8.16368 26.2301 8.17787 23.6238ZM4.85852 25.3686C4.85852 24.9651 4.972 24.5507 5.59615 24.5289C6.36216 24.4962 6.47564 24.9651 6.48983 25.4231C6.50401 26.4046 6.48983 27.386 6.48983 28.3675C6.48983 29.3489 6.47564 30.3303 6.48983 31.3118C6.48983 31.7916 6.46145 32.1733 5.61034 32.1624C4.88689 32.1515 4.84434 31.8352 4.84434 31.4208C4.85852 29.4034 4.85852 27.386 4.85852 25.3686Z" fill="#A47144"/>
</svg>
