<svg width="37" height="48" viewBox="0 0 37 48" fill="none" xmlns="http://www.w3.org/2000/svg">
<path d="M36.5961 41.6644C35.1216 37.7968 33.6833 33.917 32.1846 30.0735C31.8703 29.2637 31.8582 28.744 32.5713 28.0792C33.6833 27.0519 34.1668 25.674 33.78 24.139C33.4537 22.8216 33.8767 21.8184 34.7711 20.8757C36.9467 18.5672 36.9587 16.3433 34.7953 14.071C33.9492 13.1887 33.5141 12.2459 33.7316 10.989C34.2393 8.00359 32.8252 6.06976 29.7673 5.48961C28.7158 5.28414 27.7005 4.93363 27.2533 3.93045C26.6127 2.48007 25.4766 1.59776 24.2196 0.800049C23.2527 0.800049 22.2857 0.800049 21.3188 0.800049C19.6267 1.5615 17.9346 1.5615 16.2425 0.800049C15.2756 0.800049 14.3087 0.800049 13.3418 0.800049C12.4474 1.53732 11.2629 1.96035 10.7553 3.15691C10.1388 4.60729 9.0148 5.29622 7.43147 5.55004C4.83288 5.96098 3.28581 8.24532 3.79344 10.8197C4.05934 12.1493 3.66049 13.1403 2.76609 14.0831C0.602609 16.3795 0.602607 18.5913 2.79026 20.8878C3.69675 21.8426 4.10769 22.8579 3.78135 24.1632C3.41876 25.6257 3.79344 26.9915 4.86914 27.9584C5.7031 28.7198 5.69101 29.3362 5.32842 30.2669C3.81761 34.1104 2.36723 37.9902 0.880598 41.8578C0.687214 42.3775 0.385053 42.9214 0.832252 43.3686C1.29154 43.8158 1.82334 43.4774 2.34306 43.2961C3.63632 42.8127 4.96583 42.438 6.23491 41.9062C7.03261 41.5798 7.4073 41.7853 7.79407 42.4984C8.62803 44.0938 9.55869 45.6409 10.441 47.2001C10.6827 47.2001 10.9245 47.2001 11.1662 47.2001C12.0485 46.7408 12.3386 45.8705 12.677 45.0245C13.9219 41.882 15.058 38.7033 16.2909 35.5608C16.7622 34.3642 17.4391 33.5786 18.7807 33.5786C20.1102 33.5786 20.7991 34.3642 21.2705 35.5608C22.5033 38.7033 23.6394 41.882 24.8843 45.0245C25.2228 45.8705 25.5128 46.7408 26.3952 47.2001C26.6369 47.2001 26.8786 47.2001 27.1203 47.2001C27.3742 46.7891 27.6401 46.3903 27.8818 45.9793C28.6916 44.5773 29.175 42.5468 30.3716 41.9424C31.7374 41.2656 33.4416 42.8247 35.0491 43.2357C35.6051 43.3807 36.1973 43.8884 36.717 43.3565C37.2126 42.8127 36.8016 42.2204 36.5961 41.6644ZM10.6706 44.6015C9.88503 43.1753 9.1961 42.0391 8.62803 40.8546C8.15666 39.8756 7.55233 39.7185 6.5975 40.1053C5.4372 40.5767 4.24064 40.9634 3.06825 41.3864C2.53645 40.77 3.09242 40.3107 3.24955 39.8756C4.31316 36.9386 5.4372 34.0379 6.54916 31.125C7.29852 29.167 8.59177 28.9615 9.9938 30.569C10.1509 30.7503 10.3201 30.9437 10.4047 31.1613C11.1783 32.9984 12.6287 33.917 14.5988 34.2554C13.3176 37.6396 12.0606 40.9393 10.6706 44.6015ZM21.0167 32.0678C19.4938 31.3788 18.0192 31.3788 16.4963 32.0799C14.2603 33.1072 13.0517 32.7325 11.8672 30.6053C11.1178 29.2516 10.0542 28.3572 8.55551 28.0188C5.6185 27.354 5.20756 26.8464 5.35259 23.6677C5.57015 22.181 4.94166 20.8515 3.74509 19.655C2.36724 18.265 2.29472 16.6696 3.6484 15.3522C5.02626 14.0106 5.49763 12.4998 5.32842 10.6264C5.12295 8.24532 5.8844 7.32675 8.22918 6.9279C9.83668 6.64991 10.9849 5.80385 11.7947 4.42599C13.1484 2.12956 14.1636 1.76697 16.5205 2.83058C18.0434 3.51951 19.518 3.50742 21.0529 2.81849C23.2889 1.79114 24.4855 2.16582 25.6821 4.29304C26.5039 5.7676 27.6763 6.64991 29.3443 6.9279C31.6044 7.30258 32.4263 8.25741 32.2208 10.4813C32.0395 12.4152 32.4747 13.9985 33.9129 15.3884C35.2062 16.6333 35.1941 18.3013 33.8888 19.5462C32.4384 20.9361 32.0395 22.5315 32.2208 24.4533C32.4142 26.5684 31.544 27.6562 29.4893 27.9584C27.7368 28.2243 26.5281 29.1066 25.67 30.6416C24.4855 32.7446 23.2889 33.0951 21.0167 32.0678ZM30.9276 40.1053C29.9727 39.7306 29.3684 39.8756 28.8971 40.8546C28.3411 42.0391 27.6521 43.1632 26.8665 44.5773C25.5008 40.9997 24.2317 37.6759 22.9142 34.2554C24.9569 33.917 26.3831 32.8897 27.2049 31.0162C27.5917 30.146 28.4378 29.7472 29.3443 29.4934C29.9486 29.3241 30.3353 29.4087 30.5892 30.0735C31.9549 33.7599 33.357 37.4221 34.892 41.459C33.3328 40.9393 32.1121 40.5646 30.9276 40.1053Z" fill="#A47144"/>
<path d="M18.8049 6.56521C12.7012 6.55312 7.89077 11.3273 7.89077 17.3947C7.87868 23.4984 12.6649 28.3088 18.7203 28.3209C24.7998 28.3209 29.6343 23.5346 29.6464 17.4793C29.6585 11.3998 24.8723 6.57729 18.8049 6.56521ZM18.7203 26.8705C13.6802 26.8463 9.40158 22.5677 9.36532 17.4914C9.32906 12.3667 13.6923 8.0035 18.829 8.03976C23.8933 8.07602 28.184 12.3667 28.1961 17.4068C28.1961 22.5315 23.8449 26.8826 18.7203 26.8705Z" fill="#A47144"/>
<path d="M25.1261 15.5817C24.9327 14.929 24.3525 14.9169 23.7966 14.9048C21.8265 14.8928 20.3882 14.1797 19.8322 12.1129C19.6993 11.6173 19.4817 11.0009 18.8411 10.9647C18.0555 10.9163 17.85 11.6173 17.705 12.1612C17.1732 14.1434 15.7832 14.8565 13.8977 14.9048C13.3659 14.9169 12.7374 14.8444 12.4715 15.4487C12.1452 16.1981 12.7979 16.609 13.2451 16.8991C15.0218 18.0836 15.3119 19.6548 14.6592 21.5403C14.6229 21.6491 14.5867 21.77 14.5142 22.0117C14.5021 23.0632 15.046 23.5709 16.0371 22.8336C17.9225 21.4315 19.6993 21.4074 21.5364 22.8577C21.8386 23.0995 22.2374 23.3533 22.6846 22.9786C23.1439 22.5918 23.1076 22.1446 22.9384 21.6733C22.2253 19.6427 22.5879 17.9748 24.4855 16.7541C24.8481 16.5244 25.2953 16.1498 25.1261 15.5817ZM21.0771 20.9481C19.5421 19.7636 18.0555 19.6065 16.315 21.214C16.7381 19.1351 16.8227 17.5518 14.5504 16.3794C16.6656 16.0893 18.261 15.7146 18.6719 13.5391C19.3608 15.4004 20.6057 16.2948 22.5396 16.2344C20.8475 18.4583 20.8475 18.4583 21.0771 20.9481Z" fill="#A47144"/>
</svg>
