<svg width="24" height="23" viewBox="0 0 24 23" fill="none" xmlns="http://www.w3.org/2000/svg">
<path d="M11.9486 1.68213C6.07296 1.68213 1.29968 6.22838 1.29968 11.8246C1.29968 13.6233 1.81763 15.302 2.68144 16.7674L1.31686 21.4072C1.29506 21.4814 1.29408 21.5598 1.31401 21.6345C1.33394 21.7092 1.37408 21.7777 1.43044 21.833C1.4868 21.8883 1.55741 21.9286 1.63522 21.9499C1.71303 21.9711 1.79533 21.9726 1.87391 21.9541L6.95331 20.7552C8.44587 21.5141 10.1395 21.967 11.9486 21.967C17.8243 21.967 22.5975 17.4207 22.5975 11.8246C22.5975 6.22838 17.8243 1.68213 11.9486 1.68213ZM11.9486 2.56408C17.3238 2.56408 21.6715 6.70504 21.6715 11.8246C21.6715 16.9441 17.3238 21.085 11.9486 21.085C10.2253 21.085 8.61138 20.6571 7.20832 19.9094C7.1057 19.8548 6.98511 19.8394 6.87102 19.8663L2.42281 20.9162L3.61557 16.863C3.63264 16.8058 3.63735 16.7458 3.62942 16.6867C3.6215 16.6277 3.6011 16.5707 3.56945 16.5194C2.71677 15.1423 2.22568 13.54 2.22568 11.8246C2.22568 6.70504 6.57343 2.56408 11.9486 2.56408ZM8.07915 6.53285C7.78235 6.53285 7.35848 6.63802 7.01028 6.99536C6.80113 7.20999 5.92965 8.01872 5.92965 9.44053C5.92965 10.9229 7.00908 12.202 7.13959 12.3663H7.1405V12.3672C7.12812 12.3517 7.30615 12.5972 7.54381 12.8917C7.78146 13.1861 8.11379 13.5729 8.53129 13.9915C9.3663 14.8289 10.5403 15.7966 11.9974 16.3885C12.6685 16.6606 13.1979 16.825 13.5989 16.9449C14.3422 17.1672 15.0192 17.1334 15.5278 17.062C15.9084 17.0086 16.3271 16.8345 16.7413 16.5848C17.1556 16.3352 17.5616 16.0247 17.7406 15.553C17.8688 15.2149 17.934 14.9024 17.9576 14.6452C17.9694 14.5167 17.9709 14.4032 17.9621 14.2982C17.9534 14.1931 17.9627 14.1126 17.86 13.9519C17.6444 13.6148 17.4003 13.606 17.1456 13.486C17.004 13.4193 16.6011 13.2319 16.197 13.0484C15.7933 12.8652 15.4437 12.703 15.2285 12.6299C15.0925 12.5832 14.9264 12.5162 14.6868 12.542C14.4472 12.5678 14.2106 12.7325 14.0728 12.927C13.9422 13.1114 13.4165 13.7024 13.2562 13.8761C13.2541 13.8749 13.268 13.881 13.2047 13.8511C13.0064 13.7577 12.764 13.6783 12.4053 13.498C12.0465 13.3178 11.5978 13.0516 11.1067 12.6393V12.6385C10.3758 12.0256 9.86386 11.2562 9.70235 10.9977C9.71323 10.9854 9.70106 11.0003 9.72405 10.9788L9.72496 10.9779C9.89002 10.8231 10.0363 10.6381 10.1599 10.5025C10.3352 10.3102 10.4125 10.1407 10.4963 9.98228C10.6633 9.66662 10.5703 9.31926 10.4737 9.1365V9.13564C10.4804 9.14828 10.4214 9.02443 10.358 8.88156C10.2943 8.73829 10.2131 8.55254 10.1265 8.35446C9.95311 7.95831 9.75957 7.51399 9.64448 7.25375V7.25288C9.50889 6.94635 9.32545 6.72552 9.08563 6.61898C8.8458 6.51244 8.63391 6.54273 8.62534 6.54233H8.62444C8.45329 6.53481 8.26549 6.53285 8.07915 6.53285ZM8.07915 7.4148C8.25765 7.4148 8.43364 7.41688 8.58103 7.42342C8.73266 7.43061 8.72323 7.43121 8.69407 7.41825C8.66444 7.40509 8.70464 7.40082 8.79083 7.59567C8.90352 7.85049 9.09802 8.29642 9.27191 8.6938C9.35886 8.89249 9.44023 9.07896 9.50522 9.22521C9.5702 9.37146 9.60542 9.45312 9.64629 9.53097V9.53183L9.64719 9.53269C9.68726 9.60799 9.68371 9.55978 9.6698 9.58609C9.57209 9.77078 9.55883 9.81613 9.46 9.92457C9.30952 10.0897 9.15602 10.2738 9.07477 10.35C9.00369 10.4166 8.87543 10.5202 8.79535 10.723C8.71514 10.9261 8.75258 11.2048 8.88126 11.4129C9.05258 11.6899 9.61715 12.5651 10.4945 13.3008C11.047 13.7647 11.5618 14.0717 11.973 14.2783C12.3842 14.4849 12.7192 14.6056 12.7941 14.6409C12.9721 14.7248 13.1666 14.79 13.3928 14.7641C13.6189 14.7382 13.8139 14.6075 13.938 14.4739L13.939 14.473C14.1042 14.2946 14.595 13.7608 14.8306 13.4317C14.8406 13.4351 14.8373 13.4325 14.9156 13.4593V13.4601H14.9165C14.9522 13.4722 15.3999 13.6631 15.7991 13.8443C16.1982 14.0254 16.6034 14.2137 16.735 14.2758C16.925 14.3653 17.0148 14.4236 17.038 14.4239C17.0395 14.4627 17.0411 14.5047 17.0352 14.5686C17.019 14.7457 16.9693 14.9909 16.8698 15.2533C16.821 15.3818 16.567 15.6468 16.2467 15.8398C15.9264 16.0329 15.5365 16.1693 15.3921 16.1895C14.958 16.2504 14.4426 16.2727 13.8766 16.1034C13.4841 15.9861 12.9947 15.8342 12.361 15.5772C11.0758 15.0551 9.98346 14.1668 9.20318 13.3843C8.81304 12.9931 8.50047 12.6289 8.27809 12.3534C8.05613 12.0784 7.95921 11.9353 7.8784 11.834L7.87749 11.8332C7.73404 11.6525 6.85564 10.4888 6.85564 9.44053C6.85564 8.33115 7.39665 7.8961 7.6894 7.59567C7.84309 7.43795 8.01111 7.4148 8.07915 7.4148Z" fill="white"/>
</svg>
